<svg width="14" height="14" viewBox="0 0 14 14" fill="none" xmlns="http://www.w3.org/2000/svg">
<path d="M7.05245 5.50925H8.31788V3.61111H10.216V2.34567H8.31788V0.447527H7.05245V2.34567H5.1543V3.61111H7.05245V5.50925ZM4.52158 11.2037C3.8256 11.2037 3.26248 11.7731 3.26248 12.4691C3.26248 13.1651 3.8256 13.7346 4.52158 13.7346C5.21757 13.7346 5.78702 13.1651 5.78702 12.4691C5.78702 11.7731 5.21757 11.2037 4.52158 11.2037ZM10.8487 11.2037C10.1528 11.2037 9.58964 11.7731 9.58964 12.4691C9.58964 13.1651 10.1528 13.7346 10.8487 13.7346C11.5447 13.7346 12.1142 13.1651 12.1142 12.4691C12.1142 11.7731 11.5447 11.2037 10.8487 11.2037ZM4.62915 9.14737L4.64813 9.07144L5.21757 8.04012H9.9313C10.4058 8.04012 10.8234 7.7807 11.0386 7.38842L13.4808 2.95308L12.3799 2.34567H12.3736L11.6776 3.61111L9.9313 6.77469H5.48964L5.40739 6.60385L3.9901 3.61111L3.38902 2.34567L2.79427 1.08024H0.725288V2.34567H1.99072L4.2685 7.14799L3.41433 8.69814C3.3131 8.8753 3.25615 9.0841 3.25615 9.30555C3.25615 10.0015 3.8256 10.571 4.52158 10.571H12.1142V9.30555H4.78732C4.70507 9.30555 4.62915 9.23595 4.62915 9.14737Z" fill="#1D2734"/>
</svg>
